<?xml version="1.0" encoding="UTF-8" standalone="no"?>
<!DOCTYPE svg PUBLIC "-//W3C//DTD SVG 1.1//EN" "http://www.w3.org/Graphics/SVG/1.1/DTD/svg11.dtd">
<svg width="100%" height="100%" viewBox="0 0 88 109" version="1.1" xmlns="http://www.w3.org/2000/svg" xmlns:xlink="http://www.w3.org/1999/xlink" xml:space="preserve" xmlns:serif="http://www.serif.com/" style="fill-rule:evenodd;clip-rule:evenodd;stroke-linejoin:round;stroke-miterlimit:1.41421;">
    <g transform="matrix(1,0,0,1,-6609.75,-830.25)">
        <g transform="matrix(0.913029,0,0,0.646941,-4861.11,-9877.04)">
            <g transform="matrix(1.8215,0,0,2.57068,3980.76,12745.3)">
                <path d="M4714.42,1545.27L4711.92,1545.27L4711.92,1480.27L4714.42,1480.27L4714.42,1482.77L4719.42,1482.77L4719.42,1485.27L4726.92,1485.27L4726.92,1487.77L4734.42,1487.77L4734.42,1490.27L4744.42,1490.27L4744.42,1492.77L4746.92,1492.77L4746.92,1495.27L4754.42,1495.27L4754.42,1497.77L4756.92,1497.77L4756.92,1500.27L4761.92,1500.27L4761.92,1497.77L4764.42,1497.77L4764.42,1530.27L4761.92,1530.27L4761.92,1532.77L4756.92,1532.77L4756.92,1530.27L4754.42,1530.27L4754.42,1527.77L4746.92,1527.77L4746.92,1525.27L4744.42,1525.27L4744.42,1522.77L4734.42,1522.77L4734.42,1520.27L4726.92,1520.27L4726.92,1517.77L4719.42,1517.77L4719.42,1515.27L4714.42,1515.27L4714.42,1545.27Z" style="fill:white;"/>
                <clipPath id="_clip1">
                    <path d="M4714.42,1545.27L4711.92,1545.27L4711.92,1480.27L4714.42,1480.27L4714.42,1482.77L4719.42,1482.77L4719.42,1485.27L4726.92,1485.27L4726.92,1487.77L4734.42,1487.77L4734.42,1490.27L4744.42,1490.27L4744.42,1492.77L4746.92,1492.77L4746.92,1495.27L4754.42,1495.27L4754.42,1497.77L4756.92,1497.77L4756.92,1500.27L4761.92,1500.27L4761.92,1497.77L4764.42,1497.77L4764.42,1530.27L4761.92,1530.27L4761.92,1532.77L4756.92,1532.77L4756.92,1530.27L4754.42,1530.27L4754.42,1527.77L4746.92,1527.77L4746.92,1525.27L4744.42,1525.27L4744.42,1522.77L4734.42,1522.77L4734.42,1520.27L4726.92,1520.27L4726.92,1517.77L4719.42,1517.77L4719.42,1515.27L4714.42,1515.27L4714.42,1545.27Z"/>
                </clipPath>
                <g clip-path="url(#_clip1)">
                    <path d="M4714.42,1482.77L4719.42,1482.77L4719.42,1485.27L4714.42,1485.27L4714.42,1482.77Z" style="fill:rgb(254,42,100);"/>
                    <g transform="matrix(1,0,0,1,42.4977,17.5)">
                        <path d="M4714.42,1482.77L4719.42,1482.77L4719.42,1485.27L4714.42,1485.27L4714.42,1482.77Z" style="fill:rgb(254,42,100);"/>
                    </g>
                    <g transform="matrix(1,0,0,1,42.4977,32.5)">
                        <path d="M4714.42,1482.77L4719.42,1482.77L4719.42,1485.27L4714.42,1485.27L4714.42,1482.77Z" style="fill:rgb(254,42,100);"/>
                    </g>
                    <g transform="matrix(1,0,0,1,0,5)">
                        <path d="M4714.42,1482.77L4719.42,1482.77L4719.42,1485.27L4714.42,1485.27L4714.42,1482.77Z" style="fill:rgb(254,42,100);"/>
                    </g>
                    <g transform="matrix(1,0,0,1,42.4977,22.5)">
                        <path d="M4714.42,1482.77L4719.42,1482.77L4719.42,1485.27L4714.42,1485.27L4714.42,1482.77Z" style="fill:rgb(254,42,100);"/>
                    </g>
                    <g transform="matrix(1,0,0,1,42.4977,37.5)">
                        <path d="M4714.42,1482.77L4719.42,1482.77L4719.42,1485.27L4714.42,1485.27L4714.42,1482.77Z" style="fill:rgb(254,42,100);"/>
                    </g>
                    <g transform="matrix(1,0,0,1,0,10)">
                        <path d="M4714.42,1482.77L4719.42,1482.77L4719.42,1485.27L4714.42,1485.27L4714.42,1482.77Z" style="fill:rgb(254,42,100);"/>
                    </g>
                    <g transform="matrix(1,0,0,1,-0.00227141,15)">
                        <path d="M4714.42,1482.77L4719.42,1482.77L4719.42,1485.27L4714.42,1485.27L4714.42,1482.77Z" style="fill:rgb(44,40,176);"/>
                    </g>
                    <g transform="matrix(1.5,0,0,1,-2357.21,20)">
                        <path d="M4714.42,1482.77L4719.42,1482.77L4719.42,1485.27L4714.42,1485.27L4714.42,1482.77Z" style="fill:rgb(44,40,176);"/>
                    </g>
                    <g transform="matrix(1.5,0,0,1,-2352.21,17.5)">
                        <path d="M4714.42,1482.77L4719.42,1482.77L4719.42,1485.27L4714.42,1485.27L4714.42,1482.77Z" style="fill:rgb(44,40,176);"/>
                    </g>
                    <g transform="matrix(2,0,0,1,-4704.42,20)">
                        <path d="M4714.42,1482.77L4719.42,1482.77L4719.42,1485.27L4714.42,1485.27L4714.42,1482.77Z" style="fill:rgb(44,40,176);"/>
                    </g>
                    <g transform="matrix(1.5,0,0,1,-2357.21,25)">
                        <path d="M4714.42,1482.77L4719.42,1482.77L4719.42,1485.27L4714.42,1485.27L4714.42,1482.77Z" style="fill:rgb(44,40,176);"/>
                    </g>
                    <g transform="matrix(1.5,0,0,1,-2352.21,22.5)">
                        <path d="M4714.42,1482.77L4719.42,1482.77L4719.42,1485.27L4714.42,1485.27L4714.42,1482.77Z" style="fill:rgb(44,40,176);"/>
                    </g>
                    <g transform="matrix(2.5,0,0,1,-7061.63,25)">
                        <path d="M4714.42,1482.77L4719.42,1482.77L4719.42,1485.27L4714.42,1485.27L4714.42,1482.77Z" style="fill:rgb(44,40,176);"/>
                    </g>
                    <g transform="matrix(1.5,0,0,1,-2357.21,30)">
                        <path d="M4714.42,1482.77L4719.42,1482.77L4719.42,1485.27L4714.42,1485.27L4714.42,1482.77Z" style="fill:rgb(44,40,176);"/>
                    </g>
                    <g transform="matrix(1.5,0,0,1,-2352.21,27.5)">
                        <path d="M4714.42,1482.77L4719.42,1482.77L4719.42,1485.27L4714.42,1485.27L4714.42,1482.77Z" style="fill:rgb(44,40,176);"/>
                    </g>
                    <g transform="matrix(2.5,0,0,1,-7061.63,30)">
                        <path d="M4714.42,1482.77L4719.42,1482.77L4719.42,1485.27L4714.42,1485.27L4714.42,1482.77Z" style="fill:rgb(44,40,176);"/>
                    </g>
                    <g transform="matrix(1.5,0,0,1,-2352.21,32.5)">
                        <path d="M4714.42,1482.77L4719.42,1482.77L4719.42,1485.27L4714.42,1485.27L4714.42,1482.77Z" style="fill:rgb(44,40,176);"/>
                    </g>
                    <g transform="matrix(2.5,0,0,1,-7061.63,35)">
                        <path d="M4714.42,1482.77L4719.42,1482.77L4719.42,1485.27L4714.42,1485.27L4714.42,1482.77Z" style="fill:rgb(44,40,176);"/>
                    </g>
                    <g transform="matrix(0.5,0,0,7,2357.21,-8881.63)">
                        <path d="M4714.42,1482.77L4719.42,1482.77L4719.42,1485.27L4714.42,1485.27L4714.42,1482.77Z" style="fill:rgb(44,40,176);"/>
                    </g>
                    <g transform="matrix(0.5,0,0,7,2362.21,-8879.13)">
                        <path d="M4714.42,1482.77L4719.42,1482.77L4719.42,1485.27L4714.42,1485.27L4714.42,1482.77Z" style="fill:rgb(44,40,176);"/>
                    </g>
                    <g transform="matrix(0.5,0,0,7,2367.21,-8879.13)">
                        <path d="M4714.42,1482.77L4719.42,1482.77L4719.42,1485.27L4714.42,1485.27L4714.42,1482.77Z" style="fill:rgb(44,40,176);"/>
                    </g>
                    <g transform="matrix(0.5,0,0,7,2372.21,-8876.63)">
                        <path d="M4714.42,1482.77L4719.42,1482.77L4719.42,1485.27L4714.42,1485.27L4714.42,1482.77Z" style="fill:rgb(44,40,176);"/>
                    </g>
                    <g transform="matrix(0.5,0,0,7,2377.21,-8874.13)">
                        <path d="M4714.42,1482.77L4719.42,1482.77L4719.42,1485.27L4714.42,1485.27L4714.42,1482.77Z" style="fill:rgb(44,40,176);"/>
                    </g>
                    <g transform="matrix(1.5,0,0,1,-2352.21,2.5)">
                        <path d="M4714.42,1482.77L4719.42,1482.77L4719.42,1485.27L4714.42,1485.27L4714.42,1482.77Z" style="fill:rgb(254,42,100);"/>
                    </g>
                    <g transform="matrix(1.5,0,0,1,-2344.71,5)">
                        <path d="M4714.42,1482.77L4719.42,1482.77L4719.42,1485.27L4714.42,1485.27L4714.42,1482.77Z" style="fill:rgb(254,42,100);"/>
                    </g>
                    <g transform="matrix(1.5,0,0,1,-2324.71,12.5)">
                        <path d="M4714.42,1482.77L4719.42,1482.77L4719.42,1485.27L4714.42,1485.27L4714.42,1482.77Z" style="fill:rgb(254,42,100);"/>
                    </g>
                    <g transform="matrix(1.5,0,0,1,-2324.71,27.5)">
                        <path d="M4714.42,1482.77L4719.42,1482.77L4719.42,1485.27L4714.42,1485.27L4714.42,1482.77Z" style="fill:rgb(254,42,100);"/>
                    </g>
                    <g transform="matrix(2,0,0,1,-4694.42,7.5)">
                        <path d="M4714.42,1482.77L4719.42,1482.77L4719.42,1485.27L4714.42,1485.27L4714.42,1482.77Z" style="fill:rgb(254,42,100);"/>
                    </g>
                    <g transform="matrix(1.5,0,0,1,-2352.21,7.5)">
                        <path d="M4714.42,1482.77L4719.42,1482.77L4719.42,1485.27L4714.42,1485.27L4714.42,1482.77Z" style="fill:rgb(254,42,100);"/>
                    </g>
                    <g transform="matrix(1.5,0,0,1,-2344.71,10)">
                        <path d="M4714.42,1482.77L4719.42,1482.77L4719.42,1485.27L4714.42,1485.27L4714.42,1482.77Z" style="fill:rgb(254,42,100);"/>
                    </g>
                    <g transform="matrix(1.5,0,0,1,-2324.71,17.5)">
                        <path d="M4714.42,1482.77L4719.42,1482.77L4719.42,1485.27L4714.42,1485.27L4714.42,1482.77Z" style="fill:rgb(254,42,100);"/>
                    </g>
                    <g transform="matrix(1.5,0,0,1,-2324.71,32.5)">
                        <path d="M4714.42,1482.77L4719.42,1482.77L4719.42,1485.27L4714.42,1485.27L4714.42,1482.77Z" style="fill:rgb(254,42,100);"/>
                    </g>
                    <g transform="matrix(2,0,0,1,-4694.42,12.5)">
                        <path d="M4714.42,1482.77L4719.42,1482.77L4719.42,1485.27L4714.42,1485.27L4714.42,1482.77Z" style="fill:rgb(254,42,100);"/>
                    </g>
                    <g transform="matrix(1.5,0,0,1,-2352.21,12.5)">
                        <path d="M4714.42,1482.77L4719.42,1482.77L4719.42,1485.27L4714.42,1485.27L4714.42,1482.77Z" style="fill:rgb(254,42,100);"/>
                    </g>
                    <g transform="matrix(1.5,0,0,1,-2344.71,15)">
                        <path d="M4714.42,1482.77L4719.42,1482.77L4719.42,1485.27L4714.42,1485.27L4714.42,1482.77Z" style="fill:rgb(254,42,100);"/>
                    </g>
                    <g transform="matrix(1.5,0,0,1,-2324.71,22.5)">
                        <path d="M4714.42,1482.77L4719.42,1482.77L4719.42,1485.27L4714.42,1485.27L4714.42,1482.77Z" style="fill:rgb(254,42,100);"/>
                    </g>
                    <g transform="matrix(1.5,0,0,1,-2324.71,37.5)">
                        <path d="M4714.42,1482.77L4719.42,1482.77L4719.42,1485.27L4714.42,1485.27L4714.42,1482.77Z" style="fill:rgb(254,42,100);"/>
                    </g>
                    <g transform="matrix(1.5,0,0,1,-2324.71,42.5)">
                        <path d="M4714.42,1482.77L4719.42,1482.77L4719.42,1485.27L4714.42,1485.27L4714.42,1482.77Z" style="fill:rgb(254,42,100);"/>
                    </g>
                    <g transform="matrix(1.5,0,0,1,-2334.71,22.5)">
                        <path d="M4714.42,1482.77L4719.42,1482.77L4719.42,1485.27L4714.42,1485.27L4714.42,1482.77Z" style="fill:rgb(254,42,100);"/>
                    </g>
                    <g transform="matrix(1.5,0,0,1,-2334.71,27.5)">
                        <path d="M4714.42,1482.77L4719.42,1482.77L4719.42,1485.27L4714.42,1485.27L4714.42,1482.77Z" style="fill:rgb(254,42,100);"/>
                    </g>
                    <g transform="matrix(1.5,0,0,1,-2334.71,32.5)">
                        <path d="M4714.42,1482.77L4719.42,1482.77L4719.42,1485.27L4714.42,1485.27L4714.42,1482.77Z" style="fill:rgb(254,42,100);"/>
                    </g>
                    <g transform="matrix(1.5,0,0,1,-2334.71,37.5)">
                        <path d="M4714.42,1482.77L4719.42,1482.77L4719.42,1485.27L4714.42,1485.27L4714.42,1482.77Z" style="fill:rgb(254,42,100);"/>
                    </g>
                    <g transform="matrix(0.5,0,0,1,2397.21,45)">
                        <path d="M4714.42,1482.77L4719.42,1482.77L4719.42,1485.27L4714.42,1485.27L4714.42,1482.77Z" style="fill:rgb(254,42,100);"/>
                    </g>
                    <g transform="matrix(0.5,0,0,1,2387.21,40)">
                        <path d="M4714.42,1482.77L4719.42,1482.77L4719.42,1485.27L4714.42,1485.27L4714.42,1482.77Z" style="fill:rgb(254,42,100);"/>
                    </g>
                    <g transform="matrix(0.5,0,0,1,2397.21,40)">
                        <path d="M4714.42,1482.77L4719.42,1482.77L4719.42,1485.27L4714.42,1485.27L4714.42,1482.77Z" style="fill:rgb(254,42,100);"/>
                    </g>
                    <g transform="matrix(0.5,0,0,1,2387.21,35)">
                        <path d="M4714.42,1482.77L4719.42,1482.77L4719.42,1485.27L4714.42,1485.27L4714.42,1482.77Z" style="fill:rgb(254,42,100);"/>
                    </g>
                    <g transform="matrix(0.5,0,0,1,2397.21,35)">
                        <path d="M4714.42,1482.77L4719.42,1482.77L4719.42,1485.27L4714.42,1485.27L4714.42,1482.77Z" style="fill:rgb(254,42,100);"/>
                    </g>
                    <g transform="matrix(0.5,0,0,1,2387.21,30)">
                        <path d="M4714.42,1482.77L4719.42,1482.77L4719.42,1485.27L4714.42,1485.27L4714.42,1482.77Z" style="fill:rgb(254,42,100);"/>
                    </g>
                    <g transform="matrix(0.5,0,0,1,2397.21,30)">
                        <path d="M4714.42,1482.77L4719.42,1482.77L4719.42,1485.27L4714.42,1485.27L4714.42,1482.77Z" style="fill:rgb(254,42,100);"/>
                    </g>
                    <g transform="matrix(0.5,0,0,1,2387.21,25)">
                        <path d="M4714.42,1482.77L4719.42,1482.77L4719.42,1485.27L4714.42,1485.27L4714.42,1482.77Z" style="fill:rgb(254,42,100);"/>
                    </g>
                    <g transform="matrix(0.5,0,0,1,2397.21,25)">
                        <path d="M4714.42,1482.77L4719.42,1482.77L4719.42,1485.27L4714.42,1485.27L4714.42,1482.77Z" style="fill:rgb(254,42,100);"/>
                    </g>
                    <g transform="matrix(0.5,0,0,1,2387.21,20)">
                        <path d="M4714.42,1482.77L4719.42,1482.77L4719.42,1485.27L4714.42,1485.27L4714.42,1482.77Z" style="fill:rgb(254,42,100);"/>
                    </g>
                    <g transform="matrix(0.5,0,0,1,2397.21,20)">
                        <path d="M4714.42,1482.77L4719.42,1482.77L4719.42,1485.27L4714.42,1485.27L4714.42,1482.77Z" style="fill:rgb(254,42,100);"/>
                    </g>
                    <g transform="matrix(0.5,0,0,1,2387.21,15)">
                        <path d="M4714.42,1482.77L4719.42,1482.77L4719.42,1485.27L4714.42,1485.27L4714.42,1482.77Z" style="fill:rgb(254,42,100);"/>
                    </g>
                    <g transform="matrix(0.5,0,0,1,2397.21,15)">
                        <path d="M4714.42,1482.77L4719.42,1482.77L4719.42,1485.27L4714.42,1485.27L4714.42,1482.77Z" style="fill:rgb(254,42,100);"/>
                    </g>
                    <g transform="matrix(0.5,0,0,1,2387.21,10)">
                        <path d="M4714.42,1482.77L4719.42,1482.77L4719.42,1485.27L4714.42,1485.27L4714.42,1482.77Z" style="fill:rgb(254,42,100);"/>
                    </g>
                    <g transform="matrix(0.5,0,0,1,2404.71,45)">
                        <path d="M4714.42,1482.77L4719.42,1482.77L4719.42,1485.27L4714.42,1485.27L4714.42,1482.77Z" style="fill:rgb(254,42,100);"/>
                    </g>
                    <g transform="matrix(0.5,0,0,1,2404.71,40)">
                        <path d="M4714.42,1482.77L4719.42,1482.77L4719.42,1485.27L4714.42,1485.27L4714.42,1482.77Z" style="fill:rgb(254,42,100);"/>
                    </g>
                    <g transform="matrix(0.5,0,0,1,2404.71,35)">
                        <path d="M4714.42,1482.77L4719.42,1482.77L4719.42,1485.27L4714.42,1485.27L4714.42,1482.77Z" style="fill:rgb(254,42,100);"/>
                    </g>
                    <g transform="matrix(0.5,0,0,1,2404.71,30)">
                        <path d="M4714.42,1482.77L4719.42,1482.77L4719.42,1485.27L4714.42,1485.27L4714.42,1482.77Z" style="fill:rgb(254,42,100);"/>
                    </g>
                    <g transform="matrix(0.5,0,0,1,2404.71,25)">
                        <path d="M4714.42,1482.77L4719.42,1482.77L4719.42,1485.27L4714.42,1485.27L4714.42,1482.77Z" style="fill:rgb(254,42,100);"/>
                    </g>
                    <g transform="matrix(0.5,0,0,1,2404.71,20)">
                        <path d="M4714.42,1482.77L4719.42,1482.77L4719.42,1485.27L4714.42,1485.27L4714.42,1482.77Z" style="fill:rgb(254,42,100);"/>
                    </g>
                    <g transform="matrix(0.5,0,0,1,2404.71,15)">
                        <path d="M4714.42,1482.77L4719.42,1482.77L4719.42,1485.27L4714.42,1485.27L4714.42,1482.77Z" style="fill:rgb(254,42,100);"/>
                    </g>
                    <g transform="matrix(2,0,0,1,-4694.42,17.5)">
                        <path d="M4714.42,1482.77L4719.42,1482.77L4719.42,1485.27L4714.42,1485.27L4714.42,1482.77Z" style="fill:rgb(254,42,100);"/>
                    </g>
                    <g transform="matrix(1,0,0,1,42.4977,27.5)">
                        <path d="M4714.42,1482.77L4719.42,1482.77L4719.42,1485.27L4714.42,1485.27L4714.42,1482.77Z" style="fill:rgb(254,42,100);"/>
                    </g>
                    <g transform="matrix(1,0,0,1,42.4977,42.5)">
                        <path d="M4714.42,1482.77L4719.42,1482.77L4719.42,1485.27L4714.42,1485.27L4714.42,1482.77Z" style="fill:rgb(254,42,100);"/>
                    </g>
                    <g transform="matrix(1,0,0,1,42.4977,47.5)">
                        <path d="M4714.42,1482.77L4719.42,1482.77L4719.42,1485.27L4714.42,1485.27L4714.42,1482.77Z" style="fill:rgb(254,42,100);"/>
                    </g>
                </g>
            </g>
        </g>
    </g>
</svg>
