<svg width="32" height="32" viewBox="0 0 32 32" fill="none" xmlns="http://www.w3.org/2000/svg">
<path fill-rule="evenodd" clip-rule="evenodd" d="M3.77158 25.0796V2.94296C3.77158 2.69979 3.96761 2.5 4.20955 2.5H8.11295C8.26376 2.5 8.40387 2.57819 8.48403 2.70846L19.1556 19.9558V6.91169H14.7229C14.5722 6.91169 14.432 6.83358 14.3519 6.70331L12.1688 3.17737C12.0841 3.03842 12.0794 2.8648 12.1565 2.72585C12.2336 2.5869 12.3805 2.5 12.5398 2.5H30.562C30.8039 2.5 31 2.69979 31 2.94296V6.46881C31 6.71198 30.8039 6.91169 30.562 6.91169H23.9527V29.057C23.9527 29.3002 23.7566 29.5 23.5147 29.5H19.5936C19.4428 29.5 19.3027 29.4218 19.2226 29.2915L8.551 12.0442V29.057C8.551 29.3002 8.35488 29.5 8.11295 29.5H1.43805C1.19612 29.5 1 29.3002 1 29.057V25.5225C1 25.2794 1.19612 25.0796 1.43805 25.0796H3.77158Z" fill="#212121"/>
</svg>
